<svg width="900" height="747" viewBox="0 0 900 747" fill="none" xmlns="http://www.w3.org/2000/svg">
<path d="M0 0H889.933C895.455 0 899.933 4.47715 899.933 10V736.441C899.933 741.964 895.455 746.441 889.933 746.441H0V0Z" fill="url(#paint0_linear_313_238)"/>
<path opacity="0.6" d="M505.524 471.578C394.488 785.537 455.095 732.64 368.428 732.64C153.716 688.143 124.977 410.859 211.505 469.497C298.033 528.136 290.964 -133.401 368.428 183.245C445.892 499.891 616.56 157.619 505.524 471.578Z" fill="#5A6684"/>
<path d="M12 412.288C12 412.288 389.928 17.8471 358.096 243.932C326.265 470.017 296.154 499.826 296.154 499.826L155.064 736" stroke="white" stroke-opacity="0.2" stroke-width="30"/>
<path opacity="0.3" d="M754.551 491.771C693.551 716.271 506.718 778.508 480.051 611.771C441.987 373.771 759.794 449.093 666.672 318.682C573.551 188.271 848.823 1.8234 883.55 37.7711C918.277 73.7189 883.049 367.638 754.551 491.771Z" fill="#6C3A30"/>
<path d="M889 611.682C810.472 625.96 766.933 403.694 505.693 557.424C244.454 711.155 528.5 694.5 553 731.5" stroke="white" stroke-opacity="0.2" stroke-width="30"/>
<path opacity="0.6" d="M632.815 27.2528C482.408 12.3957 383.939 114.681 442.912 164C389.127 164 332 76.3479 332 49.1099C332 21.872 389.127 11 442.912 11C496.697 11 783.223 42.1099 632.815 27.2528Z" fill="#9E3330"/>
<defs>
<linearGradient id="paint0_linear_313_238" x1="449.966" y1="0" x2="449.966" y2="746.441" gradientUnits="userSpaceOnUse">
<stop stop-color="#D07A39"/>
<stop offset="1" stop-color="#737373"/>
</linearGradient>
</defs>
</svg>
